<?xml version="1.0" encoding="UTF-8"?>
<svg width="178px" height="36px" viewBox="0 0 178 36" version="1.1" xmlns="http://www.w3.org/2000/svg" xmlns:xlink="http://www.w3.org/1999/xlink">
    <!-- Generator: Sketch 46.2 (44496) - http://www.bohemiancoding.com/sketch -->
    <title>Valenica</title>
    <desc>Created with Sketch.</desc>
    <defs></defs>
    <g id="🌴-Valencia" stroke="none" stroke-width="1" fill="none" fill-rule="evenodd">
        <g id="Home" transform="translate(-53.000000, -56.000000)" fill="#FFFFFF">
            <g id="Header" transform="translate(29.000000, 45.000000)">
                <path d="M38.7427845,46 L24.9244251,11.5029297 L31.7847767,11.5029297 L41.0865345,35.9414062 L50.3394642,11.5029297 L57.1265736,11.5029297 L43.3814564,46 L38.7427845,46 Z M63.4617515,46.4882812 C58.4568686,46.4882812 54.5994468,43.6074219 54.5994468,38.5048828 C54.5994468,33.2070312 58.8474936,31.4492188 64.3162436,31.4492188 L70.6638999,31.4492188 C70.6638999,28.3486328 69.0037436,26.2978516 65.8543296,26.2978516 C63.0467124,26.2978516 61.1668296,27.9580078 60.1170249,29.7402344 L55.5515952,26.4443359 C57.8953452,23.2460938 60.9959311,21.0976562 65.8055015,21.0976562 C72.4461265,21.0976562 76.3523765,25.2480469 76.3523765,31.2050781 L76.3523765,46 L71.4451499,46 L71.0545249,42.5087891 C68.9549155,45.5605469 66.3670249,46.4882812 63.4617515,46.4882812 Z M64.3162436,41.4589844 C67.7097983,41.4589844 70.5662436,38.7978516 70.6638999,35.7460938 L64.6580405,35.7460938 C61.9480796,35.7460938 60.7029624,37.1621094 60.7029624,38.7001953 C60.7029624,40.3115234 61.9969077,41.4589844 64.3162436,41.4589844 Z M86.5449762,46.4882812 C87.9609919,46.4882812 89.7432184,46.2441406 90.9883356,46 L90.9883356,40.9951172 C90.35357,41.0927734 89.6943903,41.1416016 89.3525934,41.1416016 C88.1563044,41.1416016 87.3994684,40.6533203 87.3994684,39.5058594 L87.3994684,11.5029297 L81.4424372,11.5029297 L81.4424372,41.1416016 C81.4424372,45.4384766 83.737359,46.4882812 86.5449762,46.4882812 Z M104.623318,46.4882812 C96.2248807,46.4882812 92.2698026,40.4580078 92.2698026,33.890625 C92.2698026,27.5429688 95.9807401,21.0976562 104.232693,21.0976562 C112.777615,21.0976562 115.536404,27.9580078 115.536404,33.4023438 C115.536404,34.4033203 115.438748,35.4042969 115.316678,35.7460938 L98.5686307,35.7460938 C99.081326,38.9443359 100.839139,41.0927734 104.672146,41.0927734 C106.869412,41.0927734 108.822537,40.4091797 110.531521,38.5048828 L114.633084,42.09375 C111.971951,45.0478516 108.724881,46.4882812 104.623318,46.4882812 Z M98.5686307,31.4492188 L109.677029,31.4492188 C109.286404,27.9580078 107.284451,26.1025391 104.183865,26.1025391 C100.66824,26.1025391 99.1301541,28.3974609 98.5686307,31.4492188 Z M119.405762,46 L125.313965,46 L125.313965,32.6455078 C125.313965,28.3974609 127.462402,26.5908203 130.807129,26.5908203 C133.858887,26.5908203 135.470215,28.9101562 135.470215,32.1083984 L135.470215,46 L141.354004,46 L141.354004,31.3515625 C141.354004,26.2490234 138.912598,21.0976562 132.516113,21.0976562 C130.123535,21.0976562 127.26709,22.0498047 125.313965,24.4423828 L125.313965,21.6103516 L119.405762,21.6103516 L119.405762,46 Z M146.492893,16.9960938 L152.694065,16.9960938 L152.694065,11.5029297 L146.492893,11.5029297 L146.492893,16.9960938 Z M146.639377,46 L152.54758,46 L152.54758,21.6103516 L146.639377,21.6103516 L146.639377,46 Z M168.184516,46.4882812 C173.0185,46.4882812 176.827094,43.8027344 178.438422,39.2617188 L173.0185,37.2109375 C172.383735,39.5058594 170.528266,41.0927734 168.135688,41.0927734 C163.985297,41.0927734 162.422797,37.5527344 162.422797,33.8417969 C162.422797,30.2041016 164.034125,26.4931641 168.135688,26.4931641 C170.577094,26.4931641 172.383735,28.1533203 173.0185,30.4970703 L178.682563,28.2998047 C176.827094,23.4414062 172.969672,21.0976562 168.135688,21.0976562 C160.176703,21.0976562 156.36811,27.4453125 156.36811,33.8417969 C156.36811,40.3115234 160.225532,46.4882812 168.184516,46.4882812 Z M188.484538,46.4882812 C183.479655,46.4882812 179.622233,43.6074219 179.622233,38.5048828 C179.622233,33.2070312 183.87028,31.4492188 189.33903,31.4492188 L195.686686,31.4492188 C195.686686,28.3486328 194.02653,26.2978516 190.877116,26.2978516 C188.069499,26.2978516 186.189616,27.9580078 185.139811,29.7402344 L180.574381,26.4443359 C182.918131,23.2460938 186.018717,21.0976562 190.828288,21.0976562 C197.468913,21.0976562 201.375163,25.2480469 201.375163,31.2050781 L201.375163,46 L196.467936,46 L196.077311,42.5087891 C193.977702,45.5605469 191.389811,46.4882812 188.484538,46.4882812 Z M189.33903,41.4589844 C192.732584,41.4589844 195.58903,38.7978516 195.686686,35.7460938 L189.680827,35.7460938 C186.970866,35.7460938 185.725749,37.1621094 185.725749,38.7001953 C185.725749,40.3115234 187.019694,41.4589844 189.33903,41.4589844 Z" id="Valenica"></path>
            </g>
        </g>
    </g>
</svg>